<?xml version="1.0" standalone="no"?>
<!DOCTYPE svg PUBLIC "-//W3C//DTD SVG 20010904//EN"
 "http://www.w3.org/TR/2001/REC-SVG-20010904/DTD/svg10.dtd">
<svg version="1.0" xmlns="http://www.w3.org/2000/svg"
 width="90.000000pt" height="90.000000pt" viewBox="0 0 90.000000 90.000000"
 preserveAspectRatio="xMidYMid meet">
<metadata>
Created by potrace 1.14, written by Peter Selinger 2001-2017
</metadata>
<g transform="translate(0.000000,90.000000) scale(0.100000,-0.100000)"
fill="#000000" stroke="none">
<path d="M345 870 c-36 -24 -22 -26 31 -4 31 13 57 15 129 9 77 -6 102 -12
173 -48 134 -66 167 -116 179 -267 5 -72 0 -97 -32 -174 -6 -14 -5 -18 6 -14
22 7 48 113 44 182 -8 130 -49 211 -134 256 -20 11 -43 25 -51 30 -59 38 -112
50 -212 50 -86 0 -108 -3 -133 -20z"/>
<path d="M198 810 c-9 -6 -38 -43 -64 -83 -26 -39 -65 -94 -87 -120 -22 -26
-37 -50 -35 -53 3 -2 21 3 41 11 44 18 48 18 46 3 -5 -39 4 -78 25 -113 l24
-40 13 27 c19 43 29 23 29 -60 0 -53 5 -84 15 -99 14 -20 99 -67 168 -92 30
-12 35 -46 7 -46 -9 0 -17 -16 -22 -44 -10 -58 -15 -61 -44 -28 -31 37 -30 46
6 53 17 4 30 10 30 15 0 20 -64 -2 -73 -24 -5 -15 56 -97 73 -97 4 0 10 18 14
40 6 40 7 40 28 25 28 -19 54 -19 108 0 38 13 42 13 36 -1 -16 -40 -17 -62 -4
-70 35 -22 69 -7 61 26 -4 16 4 24 40 40 26 11 49 25 52 29 6 10 -73 51 -96
50 -8 0 5 -9 29 -19 23 -11 42 -22 42 -25 0 -2 -17 -13 -37 -22 -29 -14 -39
-25 -41 -46 -2 -19 -9 -27 -23 -27 -24 0 -25 33 -4 74 8 15 15 41 15 57 0 33
31 69 59 69 11 0 23 5 27 12 5 8 -1 9 -22 5 -236 -52 -227 -52 -325 -2 -44 23
-44 22 -30 38 18 22 -14 45 -39 29 -16 -9 -21 -9 -28 4 -5 9 -7 26 -4 39 4 22
5 22 44 7 37 -14 44 -14 94 3 44 15 54 22 54 41 0 34 -17 38 -32 7 -25 -53
-110 -56 -146 -5 -17 23 -18 32 -8 61 6 20 20 37 34 42 21 8 23 7 16 -14 -18
-55 0 -107 37 -107 51 0 42 134 -9 147 -16 4 -36 0 -53 -9 l-27 -16 9 31 c5
18 9 33 9 34 0 2 14 3 31 3 19 0 43 -10 62 -26 33 -28 46 -21 47 26 1 44 37
110 60 110 11 0 20 4 20 9 0 5 15 8 32 6 43 -3 55 -41 40 -117 -5 -29 -8 -55
-6 -57 9 -9 39 27 59 72 17 36 24 43 29 31 8 -20 -3 -82 -15 -90 -10 -6 -12
-44 -3 -44 4 0 12 7 18 15 8 12 10 4 8 -35 -4 -54 8 -80 39 -80 23 0 39 29 39
70 0 18 4 29 10 25 6 -3 10 3 10 14 0 11 5 23 12 27 8 5 9 -8 4 -52 -9 -81
-35 -104 -116 -104 -48 0 -63 4 -80 22 -11 12 -20 28 -20 35 0 17 -27 17 -33
1 -4 -10 -6 -10 -6 0 -1 14 -57 16 -66 2 -3 -5 -1 -10 5 -10 6 0 9 -4 6 -9 -4
-5 11 -7 34 -4 26 4 40 2 40 -6 0 -6 9 -20 20 -31 16 -16 33 -20 91 -20 39 0
78 4 88 10 15 8 17 6 13 -15 -2 -13 -13 -27 -23 -30 -10 -4 -19 -11 -19 -16 0
-16 32 -23 51 -10 22 13 24 8 9 -20 -6 -10 -17 -19 -25 -19 -8 0 -15 -4 -15
-9 0 -5 9 -7 19 -4 16 4 19 1 14 -16 -5 -20 -32 -26 -100 -24 -7 1 -13 -3 -13
-7 0 -5 27 -8 59 -7 57 2 60 3 65 31 4 16 14 38 23 48 9 10 11 18 5 18 -7 0
-9 7 -5 17 4 9 2 14 -3 10 -6 -3 -16 -2 -23 2 -18 12 27 91 52 91 24 0 21 -29
-5 -57 -12 -13 -17 -23 -11 -23 41 0 71 107 33 117 -12 3 -16 11 -12 26 9 38
-14 5 -28 -41 -7 -24 -18 -46 -23 -49 -7 -4 -7 1 -2 13 4 10 10 74 11 140 3
104 1 124 -13 135 -15 12 -16 12 -8 -6 12 -27 10 -74 -4 -108 -9 -24 -14 -26
-30 -17 -11 5 -29 10 -40 10 -12 0 -21 5 -21 11 0 8 14 10 40 6 31 -4 40 -2
40 9 0 17 -44 36 -65 28 -10 -4 -15 0 -15 14 0 31 -11 52 -26 52 -8 0 -14 -8
-14 -17 -1 -10 -9 -34 -20 -53 l-19 -35 -1 57 c0 31 -4 68 -10 82 -10 26 -40
36 -40 14 -1 -8 -6 -7 -14 4 -12 16 -14 16 -29 0 -11 -10 -17 -12 -17 -4 0 46
-60 -62 -75 -136 -6 -28 -9 -31 -22 -21 -40 34 -60 132 -33 164 7 9 10 18 7
21 -10 10 -27 -6 -27 -24 0 -10 -10 -30 -22 -45 -25 -31 -45 -84 -54 -145 -5
-36 -8 -40 -18 -26 -11 15 -14 13 -26 -16 l-13 -32 -18 33 c-21 39 -24 72 -8
101 15 28 8 31 -36 12 l-39 -16 17 24 c10 12 40 57 68 100 54 83 89 113 119
103 12 -4 20 -2 20 4 0 14 -49 14 -72 1z m72 -174 c0 -8 -7 -16 -15 -20 -13
-4 -14 -2 -5 14 13 23 20 26 20 6z m3 -43 c-7 -2 -19 -2 -25 0 -7 3 -2 5 12 5
14 0 19 -2 13 -5z m414 -89 c-3 -3 -12 -4 -19 -1 -8 3 -5 6 6 6 11 1 17 -2 13
-5z m-19 -86 c-3 -7 -11 -13 -18 -13 -7 0 -15 6 -17 13 -3 7 4 12 17 12 13 0
20 -5 18 -12z m-354 -13 c-7 -17 -20 -20 -28 -6 -7 10 3 21 20 21 8 0 11 -6 8
-15z m-49 -125 c-3 -5 -11 -10 -16 -10 -6 0 -7 5 -4 10 3 6 11 10 16 10 6 0 7
-4 4 -10z m298 -108 c-4 -24 -13 -36 -32 -43 -28 -11 -121 -2 -121 11 0 23 14
40 34 40 11 1 44 7 71 14 28 8 51 13 51 12 1 0 -1 -16 -3 -34z m-73 -73 c0
-17 -62 -20 -85 -5 -39 26 -29 33 30 22 30 -6 55 -13 55 -17z"/>
<path d="M420 360 c0 -5 5 -10 10 -10 6 0 10 5 10 10 0 6 -4 10 -10 10 -5 0
-10 -4 -10 -10z"/>
<path d="M453 263 c-13 -2 -23 -10 -23 -17 0 -17 28 -41 37 -32 4 3 -2 13 -13
21 -18 14 -17 14 14 15 24 0 32 -4 32 -17 0 -13 3 -14 11 -6 7 7 9 19 6 27 -6
16 -20 18 -64 9z"/>
</g>
</svg>
